<svg data-v-fde0c5aa="" xmlns="http://www.w3.org/2000/svg" viewBox="0 0 300 300" class="font"><!----><defs data-v-fde0c5aa=""><linearGradient data-v-fde0c5aa="" gradientTransform="rotate(25)" id="e6079104-f748-47b8-8035-6c640b78acb3" x1="0%" y1="0%" x2="100%" y2="0%"><stop data-v-fde0c5aa="" offset="0%" stop-color="#8E42D3" stop-opacity="1"></stop><stop data-v-fde0c5aa="" offset="100%" stop-color="#D46975" stop-opacity="1"></stop></linearGradient></defs><rect data-v-fde0c5aa="" fill="url(#e6079104-f748-47b8-8035-6c640b78acb3)" x="0" y="0" width="300px" height="300px" class="logo-background-square"></rect><defs data-v-fde0c5aa=""><!----></defs><g data-v-fde0c5aa="" id="796e80e8-4045-4e0d-82ea-788a91c23afb" fill="#ffffff" transform="matrix(20.128087269661048,0,0,20.128087269661048,33.05580691664276,11.820678302365529)"><path d="M8.78 2.13L8.78 2.13Q8.78 1.81 8.99 1.60L8.99 1.60L8.99 1.60Q9.20 1.40 9.51 1.40L9.51 1.40L9.51 1.40Q9.81 1.40 10.02 1.60L10.02 1.60L10.02 1.60Q10.22 1.81 10.22 2.13L10.22 2.13L10.22 11.61L10.22 11.61Q10.22 11.93 10.02 12.13L10.02 12.13L10.02 12.13Q9.81 12.33 9.51 12.33L9.51 12.33L9.51 12.33Q9.35 12.33 9.19 12.27L9.19 12.27L9.19 12.27Q9.03 12.21 8.95 12.08L8.95 12.08L2.84 3.96L2.84 11.61L2.84 11.61Q2.84 11.91 2.64 12.12L2.64 12.12L2.64 12.12Q2.44 12.33 2.11 12.33L2.11 12.33L2.11 12.33Q1.81 12.33 1.60 12.13L1.60 12.13L1.60 12.13Q1.40 11.93 1.40 11.61L1.40 11.61L1.40 2.13L1.40 2.13Q1.40 1.81 1.60 1.60L1.60 1.60L1.60 1.60Q1.81 1.40 2.11 1.40L2.11 1.40L2.11 1.40Q2.27 1.40 2.42 1.48L2.42 1.48L2.42 1.48Q2.58 1.55 2.67 1.67L2.67 1.67L8.78 9.79L8.78 2.13Z"></path></g><!----><!----></svg>