<svg data-v-423bf9ae="" xmlns="http://www.w3.org/2000/svg" viewBox="0 0 212.59588191351136 60" class="font"><!----><defs data-v-423bf9ae=""><linearGradient data-v-423bf9ae="" gradientTransform="rotate(25)" id="f943a799-b9d4-40be-837d-c4a0823022ff" x1="0%" y1="0%" x2="100%" y2="0%"><stop data-v-423bf9ae="" offset="0%" style="stop-opacity: 1;"></stop><stop data-v-423bf9ae="" offset="100%" style="stop-opacity: 1;"></stop></linearGradient></defs><defs data-v-423bf9ae=""><linearGradient data-v-423bf9ae="" gradientTransform="rotate(25)" id="04478d3f-dcef-4e7d-aeac-7298eefb52e9" x1="0%" y1="0%" x2="100%" y2="0%"><stop data-v-423bf9ae="" offset="0%" style="stop-color: rgb(142, 66, 211); stop-opacity: 1;"></stop><stop data-v-423bf9ae="" offset="100%" style="stop-color: rgb(212, 105, 117); stop-opacity: 1;"></stop></linearGradient></defs><g data-v-423bf9ae="" id="af3dda29-8330-4bfc-b5e8-6a93a501c772" fill="url(#04478d3f-dcef-4e7d-aeac-7298eefb52e9)" transform="matrix(5.3523639425355505,0,0,5.3523639425355505,-7.493310690530166,-6.743978278132097)"><path d="M8.78 2.13L8.78 2.13Q8.78 1.81 8.99 1.60L8.99 1.60L8.99 1.60Q9.20 1.40 9.51 1.40L9.51 1.40L9.51 1.40Q9.81 1.40 10.02 1.60L10.02 1.60L10.02 1.60Q10.22 1.81 10.22 2.13L10.22 2.13L10.22 11.61L10.22 11.61Q10.22 11.93 10.02 12.13L10.02 12.13L10.02 12.13Q9.81 12.33 9.51 12.33L9.51 12.33L9.51 12.33Q9.35 12.33 9.19 12.27L9.19 12.27L9.19 12.27Q9.03 12.21 8.95 12.08L8.95 12.08L2.84 3.96L2.84 11.61L2.84 11.61Q2.84 11.91 2.64 12.12L2.64 12.12L2.64 12.12Q2.44 12.33 2.11 12.33L2.11 12.33L2.11 12.33Q1.81 12.33 1.60 12.13L1.60 12.13L1.60 12.13Q1.40 11.93 1.40 11.61L1.40 11.61L1.40 2.13L1.40 2.13Q1.40 1.81 1.60 1.60L1.60 1.60L1.60 1.60Q1.81 1.40 2.11 1.40L2.11 1.40L2.11 1.40Q2.27 1.40 2.42 1.48L2.42 1.48L2.42 1.48Q2.58 1.55 2.67 1.67L2.67 1.67L8.78 9.79L8.78 2.13ZM18.07 1.26L18.07 1.26Q19.68 1.26 20.95 1.97L20.95 1.97L20.95 1.97Q22.22 2.69 22.93 3.96L22.93 3.96L22.93 3.96Q23.63 5.24 23.63 6.86L23.63 6.86L23.63 6.86Q23.63 8.48 22.93 9.77L22.93 9.77L22.93 9.77Q22.22 11.05 20.96 11.76L20.96 11.76L20.96 11.76Q19.70 12.47 18.07 12.47L18.07 12.47L18.07 12.47Q16.45 12.47 15.18 11.76L15.18 11.76L15.18 11.76Q13.92 11.05 13.22 9.77L13.22 9.77L13.22 9.77Q12.52 8.48 12.52 6.86L12.52 6.86L12.52 6.86Q12.52 5.24 13.22 3.96L13.22 3.96L13.22 3.96Q13.92 2.69 15.18 1.97L15.18 1.97L15.18 1.97Q16.45 1.26 18.07 1.26L18.07 1.26ZM18.07 2.58L18.07 2.58Q16.87 2.58 15.93 3.14L15.93 3.14L15.93 3.14Q14.98 3.70 14.45 4.68L14.45 4.68L14.45 4.68Q13.92 5.66 13.92 6.86L13.92 6.86L13.92 6.86Q13.92 8.06 14.45 9.04L14.45 9.04L14.45 9.04Q14.98 10.02 15.93 10.59L15.93 10.59L15.93 10.59Q16.88 11.16 18.07 11.16L18.07 11.16L18.07 11.16Q19.26 11.16 20.22 10.59L20.22 10.59L20.22 10.59Q21.17 10.02 21.70 9.04L21.70 9.04L21.70 9.04Q22.23 8.06 22.23 6.86L22.23 6.86L22.23 6.86Q22.23 5.66 21.70 4.68L21.70 4.68L21.70 4.68Q21.17 3.70 20.22 3.14L20.22 3.14L20.22 3.14Q19.28 2.58 18.07 2.58L18.07 2.58ZM36.13 1.40L36.13 1.40Q36.44 1.40 36.65 1.61L36.65 1.61L36.65 1.61Q36.86 1.82 36.86 2.13L36.86 2.13L36.86 11.61L36.86 11.61Q36.86 11.91 36.65 12.12L36.65 12.12L36.65 12.12Q36.43 12.33 36.13 12.33L36.13 12.33L36.13 12.33Q35.83 12.33 35.62 12.12L35.62 12.12L35.62 12.12Q35.41 11.91 35.41 11.61L35.41 11.61L35.41 4.65L32.02 11.55L32.02 11.55Q31.78 11.91 31.39 11.91L31.39 11.91L31.39 11.91Q30.93 11.91 30.72 11.48L30.72 11.48L27.37 4.77L27.37 11.61L27.37 11.61Q27.37 11.91 27.16 12.12L27.16 12.12L27.16 12.12Q26.95 12.33 26.64 12.33L26.64 12.33L26.64 12.33Q26.33 12.33 26.12 12.12L26.12 12.12L26.12 12.12Q25.91 11.91 25.91 11.61L25.91 11.61L25.91 2.13L25.91 2.13Q25.91 1.82 26.12 1.61L26.12 1.61L26.12 1.61Q26.33 1.40 26.64 1.40L26.64 1.40L26.64 1.40Q27.06 1.40 27.29 1.79L27.29 1.79L31.44 10.12L35.49 1.79L35.49 1.79Q35.71 1.40 36.13 1.40L36.13 1.40ZM39.66 2.13L39.66 2.13Q39.66 1.81 39.87 1.60L39.87 1.60L39.87 1.60Q40.08 1.40 40.39 1.40L40.39 1.40L40.39 1.40Q40.71 1.40 40.91 1.60L40.91 1.60L40.91 1.60Q41.12 1.81 41.12 2.13L41.12 2.13L41.12 11.61L41.12 11.61Q41.12 11.91 40.91 12.12L40.91 12.12L40.91 12.12Q40.71 12.33 40.39 12.33L40.39 12.33L40.39 12.33Q40.08 12.33 39.87 12.12L39.87 12.12L39.87 12.12Q39.66 11.91 39.66 11.61L39.66 11.61L39.66 2.13Z"></path></g><!----><!----></svg>