<svg xmlns="http://www.w3.org/2000/svg" viewBox="0 0 500 500"><g id="freepik--Floor--inject-1"><ellipse id="freepik--floor--inject-1" cx="250.11" cy="316.94" rx="236.67" ry="136.64" style="fill:#f5f5f5"></ellipse></g><g id="freepik--magnifying-glass--inject-1"><g id="freepik--magnifying-glass--inject-1"><path d="M305.55,224.18v8.3c0,4.5,3,9,8.93,12.45,11.91,6.87,31.22,6.87,43.13,0,5.95-3.44,8.93-8,8.93-12.45v-8.3h0c0-4.51-3-9-8.93-12.45-11.91-6.88-31.22-6.88-43.13,0-6,3.43-8.93,7.94-8.93,12.45Zm58,0c0,3.6-2.65,7.12-7.45,9.89-5.32,3.07-12.46,4.76-20.09,4.76s-14.78-1.69-20.09-4.76c-4.81-2.77-7.46-6.29-7.46-9.89s2.65-7.12,7.46-9.9c5.31-3.07,12.45-4.76,20.09-4.76s14.77,1.69,20.09,4.76C360.94,217.06,363.59,220.57,363.59,224.18Z" style="fill:#A851B4"></path><path d="M337,241.77v8.29c-8.13.15-16.35-1.55-22.56-5.13-6-3.44-8.93-8-8.93-12.45v-8.3a8.06,8.06,0,0,1,0-.85c-.39,4.78,2.57,9.64,8.9,13.3S328.91,241.92,337,241.77Z" style="opacity:0.05"></path><path d="M357.61,211.73c-11.91-6.88-31.22-6.88-43.13,0s-11.91,18,0,24.9,31.22,6.87,43.13,0S369.52,218.6,357.61,211.73Zm-1.47,22.34c-5.32,3.07-12.46,4.76-20.09,4.76s-14.77-1.69-20.09-4.76c-4.81-2.77-7.46-6.29-7.46-9.89s2.65-7.12,7.46-9.9c5.32-3.07,12.45-4.76,20.09-4.76s14.77,1.69,20.09,4.76c4.81,2.78,7.45,6.29,7.45,9.9S361,231.3,356.14,234.07Z" style="fill:#fff;opacity:0.6000000000000001"></path><path d="M363.6,224.18a8.16,8.16,0,0,1-1.2,4.15,16.47,16.47,0,0,0-6.27-5.75c-5.31-3.07-12.45-4.76-20.09-4.76s-14.76,1.69-20.08,4.76a16.74,16.74,0,0,0-6.28,5.75,8.33,8.33,0,0,1-1.18-4.15c0-3.61,2.65-7.12,7.46-9.9,5.32-3.07,12.45-4.76,20.08-4.76s14.78,1.69,20.09,4.76C361,217.06,363.6,220.57,363.6,224.18Z" style="fill:#A851B4"></path><path d="M356.14,218c-5.32-3.07-12.46-4.76-20.09-4.76S321.28,215,316,218c-4,2.29-6.46,5.08-7.21,8,.75,2.93,3.24,5.72,7.21,8,5.32,3.07,12.45,4.76,20.09,4.76s14.77-1.69,20.09-4.76c4-2.29,6.46-5.08,7.21-8C362.6,223.12,360.11,220.33,356.14,218Z" style="fill:#fff;opacity:0.5"></path><path d="M356.7,241.91a4.77,4.77,0,0,1,2.12-3.71,1.51,1.51,0,0,1,1.51-.16h0l10.26,5.85h0a1.53,1.53,0,0,1,.63,1.38,4.75,4.75,0,0,1-2.13,3.71,1.51,1.51,0,0,1-1.51.15h0l-10.26-5.86h0A1.51,1.51,0,0,1,356.7,241.91Z" style="fill:#37474f"></path><path d="M357.34,243.29a1.51,1.51,0,0,1-.64-1.38,4.13,4.13,0,0,1,.37-1.6l13.23,7.57a4.07,4.07,0,0,1-1.19,1.12,1.51,1.51,0,0,1-1.51.15l-10.26-5.86Z" style="fill:#263238"></path><path d="M368.31,246h0l-.22.35Z"></path><path d="M403.69,266.47,368.32,246a5.37,5.37,0,0,1,1.82-1.9,2,2,0,0,1,1.93-.22h0l34,18.18Z" style="fill:#A851B4"></path><path d="M403.69,266.47,368.32,246a5.37,5.37,0,0,1,1.82-1.9,2,2,0,0,1,1.93-.22h0l34,18.18Z" style="fill:#fff;opacity:0.6000000000000001"></path><path d="M403.69,266.47l-2.61,4.62-32.87-20.32a2,2,0,0,1-.83-1.8,5.17,5.17,0,0,1,.27-1.56c0-.09.08-.2.11-.29.11-.25.22-.49.34-.73l.21-.35Z" style="fill:#A851B4"></path><path d="M403.69,266.47l-2.61,4.62-32.87-20.32a2,2,0,0,1-.83-1.8,5.17,5.17,0,0,1,.27-1.56c0-.09.08-.2.11-.29.11-.25.22-.49.34-.73l.21-.35Z" style="opacity:0.05"></path><path d="M403.64,270.83a8.06,8.06,0,0,0,3.62-6.34c0-2.32-1.64-3.26-3.65-2.09a8.06,8.06,0,0,0-3.62,6.33C400,271.06,401.63,272,403.64,270.83Z" style="fill:#A851B4"></path><g style="opacity:0.30000000000000004"><path d="M403.64,270.83a8.06,8.06,0,0,0,3.62-6.34c0-2.32-1.64-3.26-3.65-2.09a8.06,8.06,0,0,0-3.62,6.33C400,271.06,401.63,272,403.64,270.83Z"></path></g></g></g><g id="freepik--Device--inject-1"><g id="freepik--Laptop--inject-1"><g id="freepik--laptop--inject-1"><path d="M134.91,338.6a8.43,8.43,0,0,0,3.94,6.54l110.29,63.68a8.75,8.75,0,0,0,7.88,0l150.91-87.13a7.4,7.4,0,0,0,0-13.08l-110.3-63.67a8.67,8.67,0,0,0-7.87,0L138.85,332.07A8.42,8.42,0,0,0,134.91,338.6Z" style="fill:#A851B4"></path><path d="M253.08,401.24v8.52a8,8,0,0,1-3.94-.94L138.85,345.14a7.37,7.37,0,0,1-.4-12.82c-1.77,1.26-1.63,3.12.4,4.29l110.29,63.68A8,8,0,0,0,253.08,401.24Z" style="fill:#fff;opacity:0.2"></path><path d="M131.22,332.21a8.45,8.45,0,0,1-3.69-6.68V193.91a8.72,8.72,0,0,1,3.93-6.82L282.38,100a7.4,7.4,0,0,1,11.32,6.54V238.12a8.7,8.7,0,0,1-3.94,6.82L138.85,332.07A8.48,8.48,0,0,1,131.22,332.21Z" style="fill:#A851B4"></path><path d="M138.38,332.3a7.37,7.37,0,0,1-10.85-6.77V193.91a8,8,0,0,1,1.15-3.88l7.39,4.26h0a8,8,0,0,0-1.16,3.87V329.79C134.91,332.12,136.43,333.17,138.38,332.3Z" style="fill:#fff;opacity:0.2"></path><path d="M134.91,198.17V329.79c0,2.51,1.76,3.53,3.94,2.28l150.91-87.13a8.7,8.7,0,0,0,3.94-6.82V106.5c0-2.51-1.76-3.53-3.94-2.27L138.85,191.35A8.7,8.7,0,0,0,134.91,198.17Z" style="fill:#fff;opacity:0.4"></path><path d="M138.85,336.61l110.29,63.68a8.75,8.75,0,0,0,7.88,0l150.91-87.13c2.17-1.26,2.17-3.29,0-4.55l-110.3-63.67a8.67,8.67,0,0,0-7.87,0L138.85,332.07C136.67,333.32,136.67,335.36,138.85,336.61Z" style="fill:#A851B4"></path><path d="M138.85,336.61l110.29,63.68a8.75,8.75,0,0,0,7.88,0l150.91-87.13c2.17-1.26,2.17-3.29,0-4.55l-110.3-63.67a8.67,8.67,0,0,0-7.87,0L138.85,332.07C136.67,333.32,136.67,335.36,138.85,336.61Z" style="fill:#fff;opacity:0.6"></path><path d="M141,198.66l145.5-84c1.3-.76,2.36-.15,2.36,1.36V230a5.23,5.23,0,0,1-2.36,4.09l-145.5,84c-1.31.75-2.37.14-2.37-1.36V202.75A5.2,5.2,0,0,1,141,198.66Z" style="fill:#455a64"></path><path d="M151.65,333.2l140.08-80.87a4.34,4.34,0,0,1,3.94,0l7.16,4.13a1.2,1.2,0,0,1,0,2.28L162.73,339.6a4.34,4.34,0,0,1-3.94,0l-7.14-4.13A1.2,1.2,0,0,1,151.65,333.2Z" style="fill:#A851B4"></path><path d="M151.65,333.2l140.08-80.87a4.34,4.34,0,0,1,3.94,0l7.16,4.13a1.2,1.2,0,0,1,0,2.28L162.73,339.6a4.34,4.34,0,0,1-3.94,0l-7.14-4.13A1.2,1.2,0,0,1,151.65,333.2Z" style="fill:#fff;opacity:0.4"></path><path d="M170.12,343.86,310.19,263a4.34,4.34,0,0,1,3.94,0l44.07,25.44a1.2,1.2,0,0,1,0,2.27L218.28,371.47a4.37,4.37,0,0,1-3.94,0l-44.22-25.34A1.2,1.2,0,0,1,170.12,343.86Z" style="fill:#A851B4"></path><path d="M170.12,343.86,310.19,263a4.34,4.34,0,0,1,3.94,0l44.07,25.44a1.2,1.2,0,0,1,0,2.27L218.28,371.47a4.37,4.37,0,0,1-3.94,0l-44.22-25.34A1.2,1.2,0,0,1,170.12,343.86Z" style="fill:#fff;opacity:0.4"></path><path d="M295.68,299.37l4.39-2.53c.19-.11.17-.29,0-.4L295,293.51a.79.79,0,0,0-.7,0L289.89,296c-.19.1-.18.29,0,.4l5.07,2.93A.78.78,0,0,0,295.68,299.37ZM287,289.31l-4.39,2.53c-.18.11-.17.29,0,.41l5.07,2.93a.78.78,0,0,0,.7,0l4.38-2.53c.19-.11.18-.29,0-.41l-5.07-2.92A.76.76,0,0,0,287,289.31Zm-14.17,8.18-7.42,4.29c-.19.11-.18.29,0,.4l5.07,2.93a.75.75,0,0,0,.7,0l7.42-4.28c.19-.11.18-.29,0-.4l-5.07-2.93A.79.79,0,0,0,272.86,297.49Zm7.76-4.48-4.39,2.54c-.18.1-.17.28,0,.4l5.07,2.93a.78.78,0,0,0,.7,0l4.38-2.53c.19-.11.18-.29,0-.4L281.32,293A.79.79,0,0,0,280.62,293ZM263.41,303,259,305.48c-.19.11-.18.29,0,.4l5.07,2.93a.79.79,0,0,0,.7,0l4.39-2.54c.18-.1.17-.29,0-.4L264.11,303A.78.78,0,0,0,263.41,303Zm-6.41,3.7-4.38,2.53c-.19.11-.18.29,0,.4l5.07,2.93a.79.79,0,0,0,.7,0L262.8,310c.18-.1.17-.28,0-.4l-5.07-2.93A.78.78,0,0,0,257,306.65ZM277,318.55l4.39-2.53c.18-.11.17-.29,0-.4l-5.07-2.93a.75.75,0,0,0-.7,0l-4.39,2.53c-.18.11-.17.29,0,.4l5.07,2.93A.75.75,0,0,0,277,318.55Zm-6.41,3.71,4.39-2.54c.18-.1.17-.29,0-.4l-5.07-2.93a.78.78,0,0,0-.7,0l-4.39,2.53c-.18.11-.17.29,0,.4l5.07,2.93A.79.79,0,0,0,270.54,322.26Zm-6.41,3.7,4.39-2.54c.18-.1.17-.28,0-.4l-5.07-2.93a.78.78,0,0,0-.7,0l-4.39,2.53c-.18.11-.17.29,0,.4l5.07,2.93A.79.79,0,0,0,264.13,326Zm-6.41,3.7,4.39-2.53c.18-.11.17-.29,0-.41L257,323.79a.78.78,0,0,0-.7,0l-4.39,2.53c-.18.11-.17.29,0,.41l5.07,2.92A.75.75,0,0,0,257.72,329.66Zm31.55-26.59,4.39-2.53c.19-.11.17-.29,0-.4l-5.07-2.93a.75.75,0,0,0-.7,0l-4.38,2.53c-.19.11-.18.29,0,.4l5.07,2.93A.75.75,0,0,0,289.27,303.07Zm-5.91,11.78,9.78-5.65c.19-.1.18-.28,0-.4l-12.32-7.11a.75.75,0,0,0-.7,0L275,304.6c-.18.11-.17.29,0,.4l6.52,3.77c.2.11.21.29,0,.4l-4.05,2.34c-.18.1-.17.29,0,.4l5.07,2.93A.78.78,0,0,0,283.36,314.85Zm-32.77-4.5-4.38,2.53c-.19.11-.18.29,0,.4l5.07,2.93a.79.79,0,0,0,.7,0l4.39-2.53c.18-.11.17-.29,0-.41l-5.07-2.93A.78.78,0,0,0,250.59,310.35Zm-6.41,3.7-4.38,2.53c-.19.11-.18.29,0,.41l5.07,2.92a.76.76,0,0,0,.7,0L250,317.4c.18-.11.17-.29,0-.41l-5.07-2.93A.78.78,0,0,0,244.18,314.05Zm-32,41.5a.78.78,0,0,0,.7,0l4.38-2.53c.19-.11.18-.29,0-.4l-5.07-2.93a.75.75,0,0,0-.7,0l-4.39,2.53c-.18.1-.17.29,0,.4ZM192.9,343.66l-4.39,2.53c-.18.11-.17.29,0,.4l5.07,2.93a.79.79,0,0,0,.7,0L198.7,347c.18-.1.17-.29,0-.4l-5.07-2.93A.78.78,0,0,0,192.9,343.66Zm10.32,8.68a.75.75,0,0,0,.7,0l4.38-2.53c.19-.11.18-.29,0-.4l-5.07-2.93a.75.75,0,0,0-.7,0L198.12,349c-.19.11-.17.29,0,.4Zm20.25,5.46,4.38-2.53c.19-.11.18-.29,0-.41l-5.07-2.93a.78.78,0,0,0-.7,0l-4.39,2.53c-.18.11-.17.29,0,.41l5.07,2.92A.75.75,0,0,0,223.47,357.8Zm-7.11,3.69a.78.78,0,0,0,.7,0l4.38-2.53c.19-.11.18-.29,0-.41l-5.07-2.92a.76.76,0,0,0-.7,0l-4.39,2.53c-.18.11-.17.29,0,.41ZM199.31,340l-4.39,2.53c-.18.11-.17.29,0,.4l5.07,2.93a.75.75,0,0,0,.7,0l4.39-2.53c.18-.11.17-.29,0-.4L200,340A.75.75,0,0,0,199.31,340Zm32.05-18.51L227,324c-.19.11-.18.29,0,.41l5.07,2.93a.78.78,0,0,0,.7,0l4.39-2.53c.18-.11.17-.29,0-.41l-5.07-2.92A.75.75,0,0,0,231.36,321.45Zm-25.64,14.81-4.39,2.53c-.18.1-.17.29,0,.4l5.07,2.93a.78.78,0,0,0,.7,0l4.39-2.53c.18-.11.17-.29,0-.4l-5.07-2.93A.75.75,0,0,0,205.72,336.26Zm32.05-18.51-4.38,2.53c-.19.11-.18.29,0,.41l5.07,2.92a.75.75,0,0,0,.7,0l4.39-2.53c.18-.11.17-.29,0-.41l-5.07-2.93A.78.78,0,0,0,237.77,317.75ZM225,325.15l-4.38,2.53c-.19.11-.18.29,0,.41l5.07,2.93a.78.78,0,0,0,.7,0l4.39-2.53c.18-.11.17-.29,0-.41l-5.07-2.92A.75.75,0,0,0,225,325.15Zm-6.41,3.7-4.38,2.54c-.19.1-.18.28,0,.4l5.07,2.93a.78.78,0,0,0,.7,0l4.39-2.53c.18-.11.17-.29,0-.4l-5.07-2.93A.79.79,0,0,0,218.54,328.85Zm-6.41,3.7-4.38,2.54c-.19.1-.18.28,0,.4l5.07,2.93a.78.78,0,0,0,.7,0l4.39-2.53c.18-.11.17-.29,0-.4l-5.07-2.93A.79.79,0,0,0,212.13,332.55Zm32.77,4.51,4.39-2.53c.18-.11.17-.29,0-.41l-5.07-2.93a.78.78,0,0,0-.7,0l-4.39,2.53c-.18.11-.17.29,0,.41L244.2,337A.75.75,0,0,0,244.9,337.06Zm56.3-55.93-4.39,2.53c-.18.11-.17.29,0,.41l5.07,2.92a.75.75,0,0,0,.7,0l4.38-2.53c.19-.11.18-.29,0-.41l-5.07-2.92A.76.76,0,0,0,301.2,281.13Zm-7.76,4.48-4.39,2.53c-.18.11-.17.29,0,.41l5.07,2.93a.78.78,0,0,0,.7,0l4.38-2.53c.19-.11.18-.29,0-.41l-5.07-2.92A.76.76,0,0,0,293.44,285.61Zm14.17-8.18L303.22,280c-.18.11-.17.29,0,.41l5.07,2.92a.75.75,0,0,0,.7,0l4.38-2.53c.19-.11.18-.29,0-.41l-5.07-2.93A.78.78,0,0,0,307.61,277.43Zm-33.18,34.21,4.38-2.53c.19-.11.18-.29,0-.4l-5.07-2.93a.75.75,0,0,0-.7,0l-4.39,2.53c-.18.11-.17.29,0,.4l5.07,2.93A.75.75,0,0,0,274.43,311.64Zm40.29-37.9a.78.78,0,0,0-.7,0l-4.39,2.53c-.18.11-.17.29,0,.41l5.07,2.92a.75.75,0,0,0,.7,0l4.38-2.53c.19-.11.18-.29,0-.41Zm-63.41,59.62,4.39-2.53c.18-.11.17-.29,0-.41l-5.07-2.93a.78.78,0,0,0-.7,0L245.51,330c-.18.11-.17.29,0,.41l5.07,2.92A.75.75,0,0,0,251.31,333.36ZM329.92,288l4.38-2.53c.19-.11.18-.29,0-.4l-5.07-2.93a.75.75,0,0,0-.7,0l-4.39,2.53c-.18.1-.17.29,0,.4l5.07,2.93A.78.78,0,0,0,329.92,288Zm-13.66-.48,4.39-2.53c.19-.11.17-.29,0-.4l-5.07-2.93a.79.79,0,0,0-.7,0l-4.38,2.53c-.19.11-.18.29,0,.41l5.07,2.93A.78.78,0,0,0,316.26,287.49Zm5.7-9.56a.75.75,0,0,0-.7,0l-4.38,2.53c-.19.11-.18.29,0,.41l5.07,2.93a.78.78,0,0,0,.7,0l4.39-2.53c.19-.11.17-.29,0-.41Zm1.35-.78,12.32,7.11a.78.78,0,0,0,.7,0l4.38-2.53c.19-.11.18-.29,0-.4l-12.32-7.11a.75.75,0,0,0-.7,0l-4.38,2.53C323.1,276.85,323.11,277,323.31,277.15Zm-14.87,8.16-4.38,2.54c-.19.1-.18.28,0,.4l5.07,2.93a.78.78,0,0,0,.7,0l4.39-2.53c.19-.11.17-.29,0-.4l-5.07-2.93A.79.79,0,0,0,308.44,285.31ZM260.2,313.17l-4.39,2.53c-.18.11-.17.29,0,.4l5.07,2.93a.79.79,0,0,0,.7,0l4.38-2.54c.19-.1.18-.28,0-.4l-5.07-2.93A.78.78,0,0,0,260.2,313.17Zm62.61-21.51a.75.75,0,0,0,.7,0l4.38-2.53c.19-.11.18-.29,0-.4l-5.07-2.93a.75.75,0,0,0-.7,0l-4.39,2.53c-.18.11-.17.29,0,.4Zm-56.2,17.81L262.22,312c-.18.11-.17.29,0,.4l5.07,2.93a.79.79,0,0,0,.7,0l4.38-2.54c.19-.1.18-.29,0-.4l-5.07-2.93A.78.78,0,0,0,266.61,309.47Zm-48.05,42.38a.78.78,0,0,0,.7,0l4.39-2.53c.18-.11.17-.29,0-.4L218.55,346a.79.79,0,0,0-.7,0l-4.39,2.54c-.18.1-.17.28,0,.4Zm-9.64-9.07-4.39,2.53c-.19.1-.17.29,0,.4l5.07,2.93a.78.78,0,0,0,.7,0l4.38-2.53c.19-.11.18-.29,0-.4l-5.07-2.93A.75.75,0,0,0,208.92,342.78Zm16.75,5.38,4.38-2.53c.19-.11.18-.29,0-.4L225,342.3a.79.79,0,0,0-.7,0l-4.39,2.54c-.18.1-.17.28,0,.4l5.07,2.93A.78.78,0,0,0,225.67,348.16Zm6.41-3.7,4.39-2.53c.18-.11.17-.29,0-.41l-5.07-2.92a.75.75,0,0,0-.7,0l-4.39,2.53c-.18.11-.17.29,0,.41l5.07,2.93A.78.78,0,0,0,232.08,344.46Zm6.41-3.7,4.39-2.53c.18-.11.17-.29,0-.41l-5.07-2.92a.75.75,0,0,0-.7,0l-4.39,2.53c-.18.11-.17.29,0,.41l5.07,2.93A.78.78,0,0,0,238.49,340.76Zm-23.16-1.69-4.39,2.54c-.19.1-.17.28,0,.4l5.07,2.93a.78.78,0,0,0,.7,0l4.38-2.53c.19-.11.18-.29,0-.4L216,339.09A.79.79,0,0,0,215.33,339.07Zm6.41-3.7-4.39,2.54c-.18.1-.17.28,0,.4l5.07,2.93a.78.78,0,0,0,.7,0l4.38-2.53c.19-.11.18-.29,0-.4l-5.07-2.93A.79.79,0,0,0,221.74,335.37Zm25.64-14.8L243,323.1c-.18.11-.17.29,0,.41l5.07,2.92a.75.75,0,0,0,.7,0l4.38-2.53c.19-.11.18-.29,0-.41l-5.07-2.93A.78.78,0,0,0,247.38,320.57Zm-6.41,3.7-4.39,2.53c-.18.11-.17.29,0,.41l5.07,2.92a.75.75,0,0,0,.7,0l4.38-2.53c.19-.11.18-.29,0-.41l-5.07-2.93A.78.78,0,0,0,241,324.27Zm12.82-7.4-4.39,2.53c-.18.11-.17.29,0,.4l5.07,2.93a.79.79,0,0,0,.7,0l4.38-2.54c.19-.1.18-.28,0-.4l-5.07-2.93A.78.78,0,0,0,253.79,316.87Zm-25.64,14.8-4.39,2.53c-.18.11-.17.29,0,.41l5.07,2.93a.78.78,0,0,0,.7,0l4.38-2.53c.19-.11.18-.29,0-.41l-5.07-2.92A.76.76,0,0,0,228.15,331.67Zm6.41-3.7-4.39,2.53c-.18.11-.17.29,0,.41l5.07,2.93a.78.78,0,0,0,.7,0l4.38-2.53c.19-.11.18-.29,0-.41L235.26,328A.76.76,0,0,0,234.56,328Zm-4.68,26.13,4.38-2.53c.19-.11.18-.29,0-.41l-5.07-2.93a.78.78,0,0,0-.7,0l-4.39,2.53c-.18.11-.17.29,0,.41l5.07,2.92A.75.75,0,0,0,229.88,354.1Zm-37.62-3.8-5.07-2.93a.78.78,0,0,0-.7,0l-4.39,2.53c-.18.11-.17.29,0,.4l5.07,2.93a.79.79,0,0,0,.7,0l4.39-2.54C192.47,350.6,192.46,350.42,192.26,350.3Zm9.61,2.82-5.07-2.93a.78.78,0,0,0-.7,0l-6.75,3.89c-.19.11-.18.29,0,.41l5.08,2.92a.75.75,0,0,0,.7,0l6.74-3.9C202.08,353.42,202.07,353.23,201.87,353.12Zm-17.39-8.48-5.07-2.93a.78.78,0,0,0-.7,0l-5.4,3.11c-.18.11-.17.29,0,.41l5.07,2.93a.78.78,0,0,0,.7,0l5.4-3.12C184.69,344.94,184.68,344.75,184.48,344.64Zm4.14-2.39a.75.75,0,0,0,.7,0l4.38-2.53c.19-.11.18-.29,0-.4l-5.07-2.93a.75.75,0,0,0-.7,0l-4.39,2.53c-.18.11-.17.29,0,.4Zm22.18,14.08-5.07-2.93a.75.75,0,0,0-.7,0l-8.44,4.87c-.18.1-.17.28,0,.4l5.07,2.93a.78.78,0,0,0,.7,0l8.43-4.87C211,356.62,211,356.44,210.8,356.33Zm4.21,5.93-5.07-2.92a.76.76,0,0,0-.7,0l-5.4,3.12c-.19.11-.18.29,0,.4l5.08,2.93a.75.75,0,0,0,.7,0l5.39-3.11C215.22,362.56,215.21,362.38,215,362.26Zm21.27-47.53a.75.75,0,0,0,.7,0l4.38-2.53c.19-.11.18-.29,0-.41l-5.07-2.93a.78.78,0,0,0-.7,0l-4.39,2.53c-.18.11-.17.29,0,.41Zm-12.82,7.41a.78.78,0,0,0,.7,0l4.38-2.53c.19-.11.18-.29,0-.41l-5.07-2.92a.76.76,0,0,0-.7,0l-4.39,2.53c-.18.11-.17.29,0,.41ZM195,338.55a.78.78,0,0,0,.7,0l4.38-2.53c.19-.11.18-.29,0-.4L195,332.7a.79.79,0,0,0-.7,0l-4.39,2.54c-.18.1-.17.29,0,.4Zm34.84-20.12a.75.75,0,0,0,.7,0l4.38-2.53c.19-.11.18-.29,0-.41l-5.07-2.93a.78.78,0,0,0-.7,0l-4.39,2.53c-.18.11-.17.29,0,.41Zm-12.82,7.41a.78.78,0,0,0,.7,0l4.38-2.53c.19-.11.18-.29,0-.41L217,320a.76.76,0,0,0-.7,0L212,322.5c-.18.11-.17.29,0,.41Zm1.48,36.9a.75.75,0,0,0-.7,0l-6.75,3.89c-.18.11-.17.29,0,.41l5.07,2.92a.75.75,0,0,0,.7,0l6.75-3.9c.18-.11.17-.29,0-.4Zm-10.68-31.59a.78.78,0,0,0,.7,0l4.38-2.53c.19-.11.18-.29,0-.4l-5.07-2.93a.79.79,0,0,0-.7,0l-4.39,2.54c-.18.1-.17.28,0,.4Zm-6.41,3.7a.78.78,0,0,0,.7,0l4.38-2.53c.19-.11.18-.29,0-.4L201.43,329a.79.79,0,0,0-.7,0l-4.39,2.54c-.18.1-.17.28,0,.4Zm135.85-40.67a.76.76,0,0,0-.7,0l-10.8,6.23c-.18.11-.17.29,0,.41l5.07,2.93a.78.78,0,0,0,.7,0l10.79-6.23c.19-.11.18-.29,0-.41Zm-14.17,8.18a.76.76,0,0,0-.7,0L318,304.87c-.18.11-.17.29,0,.41l5.07,2.93a.78.78,0,0,0,.7,0l4.38-2.53c.19-.11.18-.29,0-.41Zm-86.83,48,4.38-2.54c.19-.1.18-.28,0-.4l-5.07-2.93a.78.78,0,0,0-.7,0l-4.39,2.53c-.18.11-.17.29,0,.4l5.07,2.93A.79.79,0,0,0,236.29,350.4Zm74-40.64a.79.79,0,0,0-.7,0l-4.39,2.54c-.18.1-.17.28,0,.4l5.07,2.93a.78.78,0,0,0,.7,0l4.38-2.53c.19-.11.18-.29,0-.4Zm33.4-19.28a.76.76,0,0,0-.7,0L338.61,293c-.18.11-.17.29,0,.41l5.07,2.92a.75.75,0,0,0,.7,0l4.38-2.53c.19-.11.18-.29,0-.41Zm11.48-.78-12.32-7.11a.78.78,0,0,0-.7,0l-4.38,2.53c-.19.11-.18.29,0,.4l12.32,7.11a.75.75,0,0,0,.7,0l4.38-2.53C355.39,290,355.38,289.82,355.18,289.7Zm-68.84,33.89a.79.79,0,0,0-.7,0l-5.39,3.12c-.19.11-.18.29,0,.4l5.07,2.93a.79.79,0,0,0,.7,0l5.4-3.12c.19-.11.18-.29,0-.4Zm16.2-9.35a.79.79,0,0,0-.7,0l-6.75,3.9c-.19.11-.17.29,0,.4l5.07,2.93a.79.79,0,0,0,.7,0l6.74-3.9c.19-.11.18-.29,0-.4Zm-31,17.92a.79.79,0,0,0-.7,0L234.7,353c-.19.1-.17.28,0,.4l5.07,2.93a.78.78,0,0,0,.7,0l36.1-20.84c.18-.11.17-.29,0-.4Zm-38.12,22a.79.79,0,0,0-.7,0l-5.4,3.12c-.19.11-.18.29,0,.41l5.07,2.92a.76.76,0,0,0,.7,0l5.4-3.12c.19-.11.18-.29,0-.4Zm45.54-26.3a.78.78,0,0,0-.7,0l-5.4,3.12c-.18.1-.17.28,0,.4l5.07,2.93a.78.78,0,0,0,.7,0l5.4-3.11c.18-.11.17-.29,0-.41Zm-53,30.58a.78.78,0,0,0-.7,0l-5.39,3.12c-.19.1-.18.29,0,.4l5.07,2.93a.78.78,0,0,0,.7,0l5.4-3.11c.19-.11.18-.29,0-.41Zm67.82-39.15a.78.78,0,0,0-.7,0l-5.4,3.12c-.19.1-.18.28,0,.4l5.08,2.93a.76.76,0,0,0,.69,0l5.4-3.11c.19-.11.18-.29,0-.41Zm22.94-13.24a.79.79,0,0,0-.7,0l-4.39,2.54c-.18.1-.17.28,0,.4l5.07,2.93a.78.78,0,0,0,.7,0l4.38-2.53c.19-.11.18-.29,0-.4Zm14-10.2,4.39-2.54c.19-.1.17-.28,0-.4L330,290a.78.78,0,0,0-.7,0L325,292.51c-.19.11-.18.29,0,.4l5.07,2.93A.79.79,0,0,0,330.75,295.86Zm-28.66-.19,4.39-2.53c.19-.11.17-.29,0-.4l-5.07-2.93a.79.79,0,0,0-.7,0l-4.38,2.54c-.19.1-.18.28,0,.4l5.07,2.93A.78.78,0,0,0,302.09,295.67Zm-14.52,25.12,12.82-7.4c.19-.11.17-.29,0-.41l-5.07-2.92a.75.75,0,0,0-.7,0l-12.82,7.4c-.18.11-.17.29,0,.41l5.07,2.93A.78.78,0,0,0,287.57,320.79Zm36.07-21.25a.76.76,0,0,0,.7,0l4.39-2.53c.19-.11.17-.29,0-.41l-5.07-2.93a.78.78,0,0,0-.7,0l-4.38,2.53c-.19.11-.18.29,0,.41Zm-6.54-4.16,4.38-2.54c.19-.1.18-.29,0-.4l-5.07-2.93a.78.78,0,0,0-.7,0L311.3,292c-.18.11-.17.29,0,.4l5.07,2.93A.79.79,0,0,0,317.1,295.38Zm-35.94,29.11,4.38-2.53c.19-.11.18-.29,0-.41l-5.07-2.92a.75.75,0,0,0-.7,0l-4.39,2.53c-.18.11-.17.29,0,.41l5.07,2.93A.78.78,0,0,0,281.16,324.49Zm28.31-16.77a.76.76,0,0,0,.7,0l4.39-2.53c.19-.11.17-.29,0-.41l-5.07-2.92a.75.75,0,0,0-.7,0l-4.38,2.53c-.19.11-.18.29,0,.41ZM249.11,343l4.38-2.54c.19-.1.18-.29,0-.4l-5.07-2.93a.78.78,0,0,0-.7,0l-4.39,2.53c-.18.11-.17.29,0,.4l5.07,2.93A.79.79,0,0,0,249.11,343Zm6.41-3.71,4.38-2.53c.19-.11.18-.29,0-.4l-5.07-2.93a.75.75,0,0,0-.7,0L249.72,336c-.18.11-.17.29,0,.4l5.07,2.93A.75.75,0,0,0,255.52,339.29ZM242.7,346.7l4.38-2.54c.19-.1.18-.28,0-.4L242,340.83a.78.78,0,0,0-.7,0l-4.39,2.53c-.18.11-.17.29,0,.4l5.07,2.93A.79.79,0,0,0,242.7,346.7Zm25.64-14.81,4.38-2.53c.19-.11.18-.29,0-.4L267.63,326a.79.79,0,0,0-.7,0l-4.39,2.54c-.18.1-.17.28,0,.4l5.07,2.93A.78.78,0,0,0,268.34,331.89Zm-6.41,3.7,4.38-2.53c.19-.11.18-.29,0-.4l-5.07-2.93a.79.79,0,0,0-.7,0l-4.39,2.54c-.18.1-.17.29,0,.4l5.07,2.93A.78.78,0,0,0,261.93,335.59Zm12.82-7.4,4.38-2.53c.19-.11.18-.29,0-.4L274,322.33a.76.76,0,0,0-.7,0L269,324.85c-.18.1-.17.28,0,.4l5.07,2.93A.78.78,0,0,0,274.75,328.19Zm29.33-54.75a.76.76,0,0,0,.69,0l4.39-2.54c.19-.1.18-.28,0-.4l-1.35-.78a.78.78,0,0,0-.7,0l-4.39,2.53c-.19.11-.17.29,0,.4ZM272.54,293.8a.75.75,0,0,0,.7,0l4.38-2.53c.19-.1.18-.29,0-.4L272.53,288a.75.75,0,0,0-.7,0l-4.39,2.53c-.19.11-.18.29,0,.4Zm12.82-7.4a.78.78,0,0,0,.7,0l4.38-2.53c.19-.11.18-.29,0-.4l-5.07-2.93a.79.79,0,0,0-.7,0l-4.39,2.54c-.19.1-.18.29,0,.4Zm-20.65,11.92a.78.78,0,0,0,.7,0l4.38-2.53c.19-.11.18-.29,0-.4l-5.07-2.93a.75.75,0,0,0-.7,0L259.61,295c-.18.1-.17.29,0,.4ZM279,290.1a.75.75,0,0,0,.7,0l4.38-2.53c.19-.11.18-.29,0-.4l-5.08-2.93a.73.73,0,0,0-.69,0l-4.39,2.53c-.19.11-.18.29,0,.4Zm-27.06,15.62a.79.79,0,0,0,.7,0L257,303.2c.19-.1.18-.29,0-.4l-5.07-2.93a.78.78,0,0,0-.7,0l-4.39,2.53c-.18.11-.17.29,0,.4Zm6.41-3.7a.75.75,0,0,0,.7,0l4.38-2.53c.19-.11.18-.29,0-.4l-5.07-2.93a.75.75,0,0,0-.7,0l-4.39,2.53c-.18.11-.17.29,0,.4Zm32.95-21.18a.76.76,0,0,0,.7,0l4.39-2.53c.19-.11.18-.29,0-.41l-1.35-.78a.78.78,0,0,0-.7,0l-4.39,2.53c-.19.11-.18.29,0,.4Zm19.24-11.1a.79.79,0,0,0,.7,0l4.38-2.54c.19-.1.18-.28,0-.4L314.2,266a.75.75,0,0,0-.7,0l-4.39,2.53c-.19.11-.17.29,0,.4Zm10.65,6.15a.79.79,0,0,0,.7,0l4.38-2.54c.19-.1.18-.28,0-.4L321.13,270a.78.78,0,0,0-.7,0L316,272.56c-.18.11-.17.29,0,.4Zm16,16.27,4.39-2.54c.19-.1.18-.28,0-.4l-5.07-2.93a.78.78,0,0,0-.7,0l-4.38,2.53c-.19.11-.18.29,0,.4l5.07,2.93A.79.79,0,0,0,337.16,292.16Zm-39.49-15a.74.74,0,0,0,.69,0l4.39-2.53c.19-.11.18-.29,0-.41l-1.35-.78a.78.78,0,0,0-.7,0L296.29,276c-.19.11-.18.29,0,.4Zm-52.19,32.28a.79.79,0,0,0,.7,0l4.38-2.54c.19-.1.18-.28,0-.4l-5.07-2.93a.78.78,0,0,0-.7,0l-4.39,2.53c-.18.11-.17.29,0,.4Z" style="fill:#A851B4"></path><path d="M295.68,299.37l4.39-2.53c.19-.11.17-.29,0-.4L295,293.51a.79.79,0,0,0-.7,0L289.89,296c-.19.1-.18.29,0,.4l5.07,2.93A.78.78,0,0,0,295.68,299.37ZM287,289.31l-4.39,2.53c-.18.11-.17.29,0,.41l5.07,2.93a.78.78,0,0,0,.7,0l4.38-2.53c.19-.11.18-.29,0-.41l-5.07-2.92A.76.76,0,0,0,287,289.31Zm-14.17,8.18-7.42,4.29c-.19.11-.18.29,0,.4l5.07,2.93a.75.75,0,0,0,.7,0l7.42-4.28c.19-.11.18-.29,0-.4l-5.07-2.93A.79.79,0,0,0,272.86,297.49Zm7.76-4.48-4.39,2.54c-.18.1-.17.28,0,.4l5.07,2.93a.78.78,0,0,0,.7,0l4.38-2.53c.19-.11.18-.29,0-.4L281.32,293A.79.79,0,0,0,280.62,293ZM263.41,303,259,305.48c-.19.11-.18.29,0,.4l5.07,2.93a.79.79,0,0,0,.7,0l4.39-2.54c.18-.1.17-.29,0-.4L264.11,303A.78.78,0,0,0,263.41,303Zm-6.41,3.7-4.38,2.53c-.19.11-.18.29,0,.4l5.07,2.93a.79.79,0,0,0,.7,0L262.8,310c.18-.1.17-.28,0-.4l-5.07-2.93A.78.78,0,0,0,257,306.65ZM277,318.55l4.39-2.53c.18-.11.17-.29,0-.4l-5.07-2.93a.75.75,0,0,0-.7,0l-4.39,2.53c-.18.11-.17.29,0,.4l5.07,2.93A.75.75,0,0,0,277,318.55Zm-6.41,3.71,4.39-2.54c.18-.1.17-.29,0-.4l-5.07-2.93a.78.78,0,0,0-.7,0l-4.39,2.53c-.18.11-.17.29,0,.4l5.07,2.93A.79.79,0,0,0,270.54,322.26Zm-6.41,3.7,4.39-2.54c.18-.1.17-.28,0-.4l-5.07-2.93a.78.78,0,0,0-.7,0l-4.39,2.53c-.18.11-.17.29,0,.4l5.07,2.93A.79.79,0,0,0,264.13,326Zm-6.41,3.7,4.39-2.53c.18-.11.17-.29,0-.41L257,323.79a.78.78,0,0,0-.7,0l-4.39,2.53c-.18.11-.17.29,0,.41l5.07,2.92A.75.75,0,0,0,257.72,329.66Zm31.55-26.59,4.39-2.53c.19-.11.17-.29,0-.4l-5.07-2.93a.75.75,0,0,0-.7,0l-4.38,2.53c-.19.11-.18.29,0,.4l5.07,2.93A.75.75,0,0,0,289.27,303.07Zm-5.91,11.78,9.78-5.65c.19-.1.18-.28,0-.4l-12.32-7.11a.75.75,0,0,0-.7,0L275,304.6c-.18.11-.17.29,0,.4l6.52,3.77c.2.11.21.29,0,.4l-4.05,2.34c-.18.1-.17.29,0,.4l5.07,2.93A.78.78,0,0,0,283.36,314.85Zm-32.77-4.5-4.38,2.53c-.19.11-.18.29,0,.4l5.07,2.93a.79.79,0,0,0,.7,0l4.39-2.53c.18-.11.17-.29,0-.41l-5.07-2.93A.78.78,0,0,0,250.59,310.35Zm-6.41,3.7-4.38,2.53c-.19.11-.18.29,0,.41l5.07,2.92a.76.76,0,0,0,.7,0L250,317.4c.18-.11.17-.29,0-.41l-5.07-2.93A.78.78,0,0,0,244.18,314.05Zm-32,41.5a.78.78,0,0,0,.7,0l4.38-2.53c.19-.11.18-.29,0-.4l-5.07-2.93a.75.75,0,0,0-.7,0l-4.39,2.53c-.18.1-.17.29,0,.4ZM192.9,343.66l-4.39,2.53c-.18.11-.17.29,0,.4l5.07,2.93a.79.79,0,0,0,.7,0L198.7,347c.18-.1.17-.29,0-.4l-5.07-2.93A.78.78,0,0,0,192.9,343.66Zm10.32,8.68a.75.75,0,0,0,.7,0l4.38-2.53c.19-.11.18-.29,0-.4l-5.07-2.93a.75.75,0,0,0-.7,0L198.12,349c-.19.11-.17.29,0,.4Zm20.25,5.46,4.38-2.53c.19-.11.18-.29,0-.41l-5.07-2.93a.78.78,0,0,0-.7,0l-4.39,2.53c-.18.11-.17.29,0,.41l5.07,2.92A.75.75,0,0,0,223.47,357.8Zm-7.11,3.69a.78.78,0,0,0,.7,0l4.38-2.53c.19-.11.18-.29,0-.41l-5.07-2.92a.76.76,0,0,0-.7,0l-4.39,2.53c-.18.11-.17.29,0,.41ZM199.31,340l-4.39,2.53c-.18.11-.17.29,0,.4l5.07,2.93a.75.75,0,0,0,.7,0l4.39-2.53c.18-.11.17-.29,0-.4L200,340A.75.75,0,0,0,199.31,340Zm32.05-18.51L227,324c-.19.11-.18.29,0,.41l5.07,2.93a.78.78,0,0,0,.7,0l4.39-2.53c.18-.11.17-.29,0-.41l-5.07-2.92A.75.75,0,0,0,231.36,321.45Zm-25.64,14.81-4.39,2.53c-.18.1-.17.29,0,.4l5.07,2.93a.78.78,0,0,0,.7,0l4.39-2.53c.18-.11.17-.29,0-.4l-5.07-2.93A.75.75,0,0,0,205.72,336.26Zm32.05-18.51-4.38,2.53c-.19.11-.18.29,0,.41l5.07,2.92a.75.75,0,0,0,.7,0l4.39-2.53c.18-.11.17-.29,0-.41l-5.07-2.93A.78.78,0,0,0,237.77,317.75ZM225,325.15l-4.38,2.53c-.19.11-.18.29,0,.41l5.07,2.93a.78.78,0,0,0,.7,0l4.39-2.53c.18-.11.17-.29,0-.41l-5.07-2.92A.75.75,0,0,0,225,325.15Zm-6.41,3.7-4.38,2.54c-.19.1-.18.28,0,.4l5.07,2.93a.78.78,0,0,0,.7,0l4.39-2.53c.18-.11.17-.29,0-.4l-5.07-2.93A.79.79,0,0,0,218.54,328.85Zm-6.41,3.7-4.38,2.54c-.19.1-.18.28,0,.4l5.07,2.93a.78.78,0,0,0,.7,0l4.39-2.53c.18-.11.17-.29,0-.4l-5.07-2.93A.79.79,0,0,0,212.13,332.55Zm32.77,4.51,4.39-2.53c.18-.11.17-.29,0-.41l-5.07-2.93a.78.78,0,0,0-.7,0l-4.39,2.53c-.18.11-.17.29,0,.41L244.2,337A.75.75,0,0,0,244.9,337.06Zm56.3-55.93-4.39,2.53c-.18.11-.17.29,0,.41l5.07,2.92a.75.75,0,0,0,.7,0l4.38-2.53c.19-.11.18-.29,0-.41l-5.07-2.92A.76.76,0,0,0,301.2,281.13Zm-7.76,4.48-4.39,2.53c-.18.11-.17.29,0,.41l5.07,2.93a.78.78,0,0,0,.7,0l4.38-2.53c.19-.11.18-.29,0-.41l-5.07-2.92A.76.76,0,0,0,293.44,285.61Zm14.17-8.18L303.22,280c-.18.11-.17.29,0,.41l5.07,2.92a.75.75,0,0,0,.7,0l4.38-2.53c.19-.11.18-.29,0-.41l-5.07-2.93A.78.78,0,0,0,307.61,277.43Zm-33.18,34.21,4.38-2.53c.19-.11.18-.29,0-.4l-5.07-2.93a.75.75,0,0,0-.7,0l-4.39,2.53c-.18.11-.17.29,0,.4l5.07,2.93A.75.75,0,0,0,274.43,311.64Zm40.29-37.9a.78.78,0,0,0-.7,0l-4.39,2.53c-.18.11-.17.29,0,.41l5.07,2.92a.75.75,0,0,0,.7,0l4.38-2.53c.19-.11.18-.29,0-.41Zm-63.41,59.62,4.39-2.53c.18-.11.17-.29,0-.41l-5.07-2.93a.78.78,0,0,0-.7,0L245.51,330c-.18.11-.17.29,0,.41l5.07,2.92A.75.75,0,0,0,251.31,333.36ZM329.92,288l4.38-2.53c.19-.11.18-.29,0-.4l-5.07-2.93a.75.75,0,0,0-.7,0l-4.39,2.53c-.18.1-.17.29,0,.4l5.07,2.93A.78.78,0,0,0,329.92,288Zm-13.66-.48,4.39-2.53c.19-.11.17-.29,0-.4l-5.07-2.93a.79.79,0,0,0-.7,0l-4.38,2.53c-.19.11-.18.29,0,.41l5.07,2.93A.78.78,0,0,0,316.26,287.49Zm5.7-9.56a.75.75,0,0,0-.7,0l-4.38,2.53c-.19.11-.18.29,0,.41l5.07,2.93a.78.78,0,0,0,.7,0l4.39-2.53c.19-.11.17-.29,0-.41Zm1.35-.78,12.32,7.11a.78.78,0,0,0,.7,0l4.38-2.53c.19-.11.18-.29,0-.4l-12.32-7.11a.75.75,0,0,0-.7,0l-4.38,2.53C323.1,276.85,323.11,277,323.31,277.15Zm-14.87,8.16-4.38,2.54c-.19.1-.18.28,0,.4l5.07,2.93a.78.78,0,0,0,.7,0l4.39-2.53c.19-.11.17-.29,0-.4l-5.07-2.93A.79.79,0,0,0,308.44,285.31ZM260.2,313.17l-4.39,2.53c-.18.11-.17.29,0,.4l5.07,2.93a.79.79,0,0,0,.7,0l4.38-2.54c.19-.1.18-.28,0-.4l-5.07-2.93A.78.78,0,0,0,260.2,313.17Zm62.61-21.51a.75.75,0,0,0,.7,0l4.38-2.53c.19-.11.18-.29,0-.4l-5.07-2.93a.75.75,0,0,0-.7,0l-4.39,2.53c-.18.11-.17.29,0,.4Zm-56.2,17.81L262.22,312c-.18.11-.17.29,0,.4l5.07,2.93a.79.79,0,0,0,.7,0l4.38-2.54c.19-.1.18-.29,0-.4l-5.07-2.93A.78.78,0,0,0,266.61,309.47Zm-48.05,42.38a.78.78,0,0,0,.7,0l4.39-2.53c.18-.11.17-.29,0-.4L218.55,346a.79.79,0,0,0-.7,0l-4.39,2.54c-.18.1-.17.28,0,.4Zm-9.64-9.07-4.39,2.53c-.19.1-.17.29,0,.4l5.07,2.93a.78.78,0,0,0,.7,0l4.38-2.53c.19-.11.18-.29,0-.4l-5.07-2.93A.75.75,0,0,0,208.92,342.78Zm16.75,5.38,4.38-2.53c.19-.11.18-.29,0-.4L225,342.3a.79.79,0,0,0-.7,0l-4.39,2.54c-.18.1-.17.28,0,.4l5.07,2.93A.78.78,0,0,0,225.67,348.16Zm6.41-3.7,4.39-2.53c.18-.11.17-.29,0-.41l-5.07-2.92a.75.75,0,0,0-.7,0l-4.39,2.53c-.18.11-.17.29,0,.41l5.07,2.93A.78.78,0,0,0,232.08,344.46Zm6.41-3.7,4.39-2.53c.18-.11.17-.29,0-.41l-5.07-2.92a.75.75,0,0,0-.7,0l-4.39,2.53c-.18.11-.17.29,0,.41l5.07,2.93A.78.78,0,0,0,238.49,340.76Zm-23.16-1.69-4.39,2.54c-.19.1-.17.28,0,.4l5.07,2.93a.78.78,0,0,0,.7,0l4.38-2.53c.19-.11.18-.29,0-.4L216,339.09A.79.79,0,0,0,215.33,339.07Zm6.41-3.7-4.39,2.54c-.18.1-.17.28,0,.4l5.07,2.93a.78.78,0,0,0,.7,0l4.38-2.53c.19-.11.18-.29,0-.4l-5.07-2.93A.79.79,0,0,0,221.74,335.37Zm25.64-14.8L243,323.1c-.18.11-.17.29,0,.41l5.07,2.92a.75.75,0,0,0,.7,0l4.38-2.53c.19-.11.18-.29,0-.41l-5.07-2.93A.78.78,0,0,0,247.38,320.57Zm-6.41,3.7-4.39,2.53c-.18.11-.17.29,0,.41l5.07,2.92a.75.75,0,0,0,.7,0l4.38-2.53c.19-.11.18-.29,0-.41l-5.07-2.93A.78.78,0,0,0,241,324.27Zm12.82-7.4-4.39,2.53c-.18.11-.17.29,0,.4l5.07,2.93a.79.79,0,0,0,.7,0l4.38-2.54c.19-.1.18-.28,0-.4l-5.07-2.93A.78.78,0,0,0,253.79,316.87Zm-25.64,14.8-4.39,2.53c-.18.11-.17.29,0,.41l5.07,2.93a.78.78,0,0,0,.7,0l4.38-2.53c.19-.11.18-.29,0-.41l-5.07-2.92A.76.76,0,0,0,228.15,331.67Zm6.41-3.7-4.39,2.53c-.18.11-.17.29,0,.41l5.07,2.93a.78.78,0,0,0,.7,0l4.38-2.53c.19-.11.18-.29,0-.41L235.26,328A.76.76,0,0,0,234.56,328Zm-4.68,26.13,4.38-2.53c.19-.11.18-.29,0-.41l-5.07-2.93a.78.78,0,0,0-.7,0l-4.39,2.53c-.18.11-.17.29,0,.41l5.07,2.92A.75.75,0,0,0,229.88,354.1Zm-37.62-3.8-5.07-2.93a.78.78,0,0,0-.7,0l-4.39,2.53c-.18.11-.17.29,0,.4l5.07,2.93a.79.79,0,0,0,.7,0l4.39-2.54C192.47,350.6,192.46,350.42,192.26,350.3Zm9.61,2.82-5.07-2.93a.78.78,0,0,0-.7,0l-6.75,3.89c-.19.11-.18.29,0,.41l5.08,2.92a.75.75,0,0,0,.7,0l6.74-3.9C202.08,353.42,202.07,353.23,201.87,353.12Zm-17.39-8.48-5.07-2.93a.78.78,0,0,0-.7,0l-5.4,3.11c-.18.11-.17.29,0,.41l5.07,2.93a.78.78,0,0,0,.7,0l5.4-3.12C184.69,344.94,184.68,344.75,184.48,344.64Zm4.14-2.39a.75.75,0,0,0,.7,0l4.38-2.53c.19-.11.18-.29,0-.4l-5.07-2.93a.75.75,0,0,0-.7,0l-4.39,2.53c-.18.11-.17.29,0,.4Zm22.18,14.08-5.07-2.93a.75.75,0,0,0-.7,0l-8.44,4.87c-.18.1-.17.28,0,.4l5.07,2.93a.78.78,0,0,0,.7,0l8.43-4.87C211,356.62,211,356.44,210.8,356.33Zm4.21,5.93-5.07-2.92a.76.76,0,0,0-.7,0l-5.4,3.12c-.19.11-.18.29,0,.4l5.08,2.93a.75.75,0,0,0,.7,0l5.39-3.11C215.22,362.56,215.21,362.38,215,362.26Zm21.27-47.53a.75.75,0,0,0,.7,0l4.38-2.53c.19-.11.18-.29,0-.41l-5.07-2.93a.78.78,0,0,0-.7,0l-4.39,2.53c-.18.11-.17.29,0,.41Zm-12.82,7.41a.78.78,0,0,0,.7,0l4.38-2.53c.19-.11.18-.29,0-.41l-5.07-2.92a.76.76,0,0,0-.7,0l-4.39,2.53c-.18.11-.17.29,0,.41ZM195,338.55a.78.78,0,0,0,.7,0l4.38-2.53c.19-.11.18-.29,0-.4L195,332.7a.79.79,0,0,0-.7,0l-4.39,2.54c-.18.1-.17.29,0,.4Zm34.84-20.12a.75.75,0,0,0,.7,0l4.38-2.53c.19-.11.18-.29,0-.41l-5.07-2.93a.78.78,0,0,0-.7,0l-4.39,2.53c-.18.11-.17.29,0,.41Zm-12.82,7.41a.78.78,0,0,0,.7,0l4.38-2.53c.19-.11.18-.29,0-.41L217,320a.76.76,0,0,0-.7,0L212,322.5c-.18.11-.17.29,0,.41Zm1.48,36.9a.75.75,0,0,0-.7,0l-6.75,3.89c-.18.11-.17.29,0,.41l5.07,2.92a.75.75,0,0,0,.7,0l6.75-3.9c.18-.11.17-.29,0-.4Zm-10.68-31.59a.78.78,0,0,0,.7,0l4.38-2.53c.19-.11.18-.29,0-.4l-5.07-2.93a.79.79,0,0,0-.7,0l-4.39,2.54c-.18.1-.17.28,0,.4Zm-6.41,3.7a.78.78,0,0,0,.7,0l4.38-2.53c.19-.11.18-.29,0-.4L201.43,329a.79.79,0,0,0-.7,0l-4.39,2.54c-.18.1-.17.28,0,.4Zm135.85-40.67a.76.76,0,0,0-.7,0l-10.8,6.23c-.18.11-.17.29,0,.41l5.07,2.93a.78.78,0,0,0,.7,0l10.79-6.23c.19-.11.18-.29,0-.41Zm-14.17,8.18a.76.76,0,0,0-.7,0L318,304.87c-.18.11-.17.29,0,.41l5.07,2.93a.78.78,0,0,0,.7,0l4.38-2.53c.19-.11.18-.29,0-.41Zm-86.83,48,4.38-2.54c.19-.1.18-.28,0-.4l-5.07-2.93a.78.78,0,0,0-.7,0l-4.39,2.53c-.18.11-.17.29,0,.4l5.07,2.93A.79.79,0,0,0,236.29,350.4Zm74-40.64a.79.79,0,0,0-.7,0l-4.39,2.54c-.18.1-.17.28,0,.4l5.07,2.93a.78.78,0,0,0,.7,0l4.38-2.53c.19-.11.18-.29,0-.4Zm33.4-19.28a.76.76,0,0,0-.7,0L338.61,293c-.18.11-.17.29,0,.41l5.07,2.92a.75.75,0,0,0,.7,0l4.38-2.53c.19-.11.18-.29,0-.41Zm11.48-.78-12.32-7.11a.78.78,0,0,0-.7,0l-4.38,2.53c-.19.11-.18.29,0,.4l12.32,7.11a.75.75,0,0,0,.7,0l4.38-2.53C355.39,290,355.38,289.82,355.18,289.7Zm-68.84,33.89a.79.79,0,0,0-.7,0l-5.39,3.12c-.19.11-.18.29,0,.4l5.07,2.93a.79.79,0,0,0,.7,0l5.4-3.12c.19-.11.18-.29,0-.4Zm16.2-9.35a.79.79,0,0,0-.7,0l-6.75,3.9c-.19.11-.17.29,0,.4l5.07,2.93a.79.79,0,0,0,.7,0l6.74-3.9c.19-.11.18-.29,0-.4Zm-31,17.92a.79.79,0,0,0-.7,0L234.7,353c-.19.1-.17.28,0,.4l5.07,2.93a.78.78,0,0,0,.7,0l36.1-20.84c.18-.11.17-.29,0-.4Zm-38.12,22a.79.79,0,0,0-.7,0l-5.4,3.12c-.19.11-.18.29,0,.41l5.07,2.92a.76.76,0,0,0,.7,0l5.4-3.12c.19-.11.18-.29,0-.4Zm45.54-26.3a.78.78,0,0,0-.7,0l-5.4,3.12c-.18.1-.17.28,0,.4l5.07,2.93a.78.78,0,0,0,.7,0l5.4-3.11c.18-.11.17-.29,0-.41Zm-53,30.58a.78.78,0,0,0-.7,0l-5.39,3.12c-.19.1-.18.29,0,.4l5.07,2.93a.78.78,0,0,0,.7,0l5.4-3.11c.19-.11.18-.29,0-.41Zm67.82-39.15a.78.78,0,0,0-.7,0l-5.4,3.12c-.19.1-.18.28,0,.4l5.08,2.93a.76.76,0,0,0,.69,0l5.4-3.11c.19-.11.18-.29,0-.41Zm22.94-13.24a.79.79,0,0,0-.7,0l-4.39,2.54c-.18.1-.17.28,0,.4l5.07,2.93a.78.78,0,0,0,.7,0l4.38-2.53c.19-.11.18-.29,0-.4Zm14-10.2,4.39-2.54c.19-.1.17-.28,0-.4L330,290a.78.78,0,0,0-.7,0L325,292.51c-.19.11-.18.29,0,.4l5.07,2.93A.79.79,0,0,0,330.75,295.86Zm-28.66-.19,4.39-2.53c.19-.11.17-.29,0-.4l-5.07-2.93a.79.79,0,0,0-.7,0l-4.38,2.54c-.19.1-.18.28,0,.4l5.07,2.93A.78.78,0,0,0,302.09,295.67Zm-14.52,25.12,12.82-7.4c.19-.11.17-.29,0-.41l-5.07-2.92a.75.75,0,0,0-.7,0l-12.82,7.4c-.18.11-.17.29,0,.41l5.07,2.93A.78.78,0,0,0,287.57,320.79Zm36.07-21.25a.76.76,0,0,0,.7,0l4.39-2.53c.19-.11.17-.29,0-.41l-5.07-2.93a.78.78,0,0,0-.7,0l-4.38,2.53c-.19.11-.18.29,0,.41Zm-6.54-4.16,4.38-2.54c.19-.1.18-.29,0-.4l-5.07-2.93a.78.78,0,0,0-.7,0L311.3,292c-.18.11-.17.29,0,.4l5.07,2.93A.79.79,0,0,0,317.1,295.38Zm-35.94,29.11,4.38-2.53c.19-.11.18-.29,0-.41l-5.07-2.92a.75.75,0,0,0-.7,0l-4.39,2.53c-.18.11-.17.29,0,.41l5.07,2.93A.78.78,0,0,0,281.16,324.49Zm28.31-16.77a.76.76,0,0,0,.7,0l4.39-2.53c.19-.11.17-.29,0-.41l-5.07-2.92a.75.75,0,0,0-.7,0l-4.38,2.53c-.19.11-.18.29,0,.41ZM249.11,343l4.38-2.54c.19-.1.18-.29,0-.4l-5.07-2.93a.78.78,0,0,0-.7,0l-4.39,2.53c-.18.11-.17.29,0,.4l5.07,2.93A.79.79,0,0,0,249.11,343Zm6.41-3.71,4.38-2.53c.19-.11.18-.29,0-.4l-5.07-2.93a.75.75,0,0,0-.7,0L249.72,336c-.18.11-.17.29,0,.4l5.07,2.93A.75.75,0,0,0,255.52,339.29ZM242.7,346.7l4.38-2.54c.19-.1.18-.28,0-.4L242,340.83a.78.78,0,0,0-.7,0l-4.39,2.53c-.18.11-.17.29,0,.4l5.07,2.93A.79.79,0,0,0,242.7,346.7Zm25.64-14.81,4.38-2.53c.19-.11.18-.29,0-.4L267.63,326a.79.79,0,0,0-.7,0l-4.39,2.54c-.18.1-.17.28,0,.4l5.07,2.93A.78.78,0,0,0,268.34,331.89Zm-6.41,3.7,4.38-2.53c.19-.11.18-.29,0-.4l-5.07-2.93a.79.79,0,0,0-.7,0l-4.39,2.54c-.18.1-.17.29,0,.4l5.07,2.93A.78.78,0,0,0,261.93,335.59Zm12.82-7.4,4.38-2.53c.19-.11.18-.29,0-.4L274,322.33a.76.76,0,0,0-.7,0L269,324.85c-.18.1-.17.28,0,.4l5.07,2.93A.78.78,0,0,0,274.75,328.19Zm29.33-54.75a.76.76,0,0,0,.69,0l4.39-2.54c.19-.1.18-.28,0-.4l-1.35-.78a.78.78,0,0,0-.7,0l-4.39,2.53c-.19.11-.17.29,0,.4ZM272.54,293.8a.75.75,0,0,0,.7,0l4.38-2.53c.19-.1.18-.29,0-.4L272.53,288a.75.75,0,0,0-.7,0l-4.39,2.53c-.19.11-.18.29,0,.4Zm12.82-7.4a.78.78,0,0,0,.7,0l4.38-2.53c.19-.11.18-.29,0-.4l-5.07-2.93a.79.79,0,0,0-.7,0l-4.39,2.54c-.19.1-.18.29,0,.4Zm-20.65,11.92a.78.78,0,0,0,.7,0l4.38-2.53c.19-.11.18-.29,0-.4l-5.07-2.93a.75.75,0,0,0-.7,0L259.61,295c-.18.1-.17.29,0,.4ZM279,290.1a.75.75,0,0,0,.7,0l4.38-2.53c.19-.11.18-.29,0-.4l-5.08-2.93a.73.73,0,0,0-.69,0l-4.39,2.53c-.19.11-.18.29,0,.4Zm-27.06,15.62a.79.79,0,0,0,.7,0L257,303.2c.19-.1.18-.29,0-.4l-5.07-2.93a.78.78,0,0,0-.7,0l-4.39,2.53c-.18.11-.17.29,0,.4Zm6.41-3.7a.75.75,0,0,0,.7,0l4.38-2.53c.19-.11.18-.29,0-.4l-5.07-2.93a.75.75,0,0,0-.7,0l-4.39,2.53c-.18.11-.17.29,0,.4Zm32.95-21.18a.76.76,0,0,0,.7,0l4.39-2.53c.19-.11.18-.29,0-.41l-1.35-.78a.78.78,0,0,0-.7,0l-4.39,2.53c-.19.11-.18.29,0,.4Zm19.24-11.1a.79.79,0,0,0,.7,0l4.38-2.54c.19-.1.18-.28,0-.4L314.2,266a.75.75,0,0,0-.7,0l-4.39,2.53c-.19.11-.17.29,0,.4Zm10.65,6.15a.79.79,0,0,0,.7,0l4.38-2.54c.19-.1.18-.28,0-.4L321.13,270a.78.78,0,0,0-.7,0L316,272.56c-.18.11-.17.29,0,.4Zm16,16.27,4.39-2.54c.19-.1.18-.28,0-.4l-5.07-2.93a.78.78,0,0,0-.7,0l-4.38,2.53c-.19.11-.18.29,0,.4l5.07,2.93A.79.79,0,0,0,337.16,292.16Zm-39.49-15a.74.74,0,0,0,.69,0l4.39-2.53c.19-.11.18-.29,0-.41l-1.35-.78a.78.78,0,0,0-.7,0L296.29,276c-.19.11-.18.29,0,.4Zm-52.19,32.28a.79.79,0,0,0,.7,0l4.38-2.54c.19-.1.18-.28,0-.4l-5.07-2.93a.78.78,0,0,0-.7,0l-4.39,2.53c-.18.11-.17.29,0,.4Z" style="fill:#fff;opacity:0.8"></path><path d="M273.9,347.9l43.29-25a5.23,5.23,0,0,1,4.72,0l24.82,14.33c1.3.75,1.3,2,0,2.73l-43.28,25a5.19,5.19,0,0,1-4.73,0L273.9,350.63C272.6,349.87,272.6,348.65,273.9,347.9Z" style="fill:#A851B4"></path><path d="M273.9,347.9l43.29-25a5.23,5.23,0,0,1,4.72,0l24.82,14.33c1.3.75,1.3,2,0,2.73l-43.28,25a5.19,5.19,0,0,1-4.73,0L273.9,350.63C272.6,349.87,272.6,348.65,273.9,347.9Z" style="fill:#fff;opacity:0.4"></path><path d="M131.22,332.2a6,6,0,0,0,1.21.52,5.5,5.5,0,0,1-1.21-.51,2.4,2.4,0,0,1-.37-.25A3.37,3.37,0,0,0,131.22,332.2Z" style="fill:#A851B4"></path><path d="M293.66,105.86c-.28-2-1.92-2.78-3.9-1.64L138.85,191.36a7.93,7.93,0,0,0-2.79,2.92L128.68,190a8,8,0,0,1,2.78-2.94L282.38,100a7.36,7.36,0,0,1,11.28,5.9Z" style="fill:#fff;opacity:0.6"></path><path d="M138.11,332.57s0,0,.06-.05l0,0Z" style="fill:#A851B4"></path><path d="M411.87,315.15a8.45,8.45,0,0,1-3.94,6.54L257,408.82a8.13,8.13,0,0,1-3.94.92v-8.51a8,8,0,0,0,3.94-.94l150.91-87.13c2-1.18,2.16-3,.4-4.29A8.52,8.52,0,0,1,411.87,315.15Z" style="fill:#fff;opacity:0.8"></path></g><g id="freepik--Window--inject-1"><path d="M144.37,303.34c0,1.86,1.31,2.61,2.92,1.68L280.78,228a6.45,6.45,0,0,0,2.92-5V133L144.37,213.47Z" style="fill:#37474f"></path><path d="M195.13,194.51v4.32c0,.88.63,1.24,1.39.8l27.72-16.09V176L196.52,192.1A3.1,3.1,0,0,0,195.13,194.51Z" style="fill:#fafafa"></path><path d="M231.55,171.79c.77-.44,1.39-.08,1.39.8v4.32a3.06,3.06,0,0,1-1.39,2.41l-7.31,4.22V176Z" style="fill:#A851B4"></path><path d="M231,177.72l-.82-.26a4.14,4.14,0,0,0,.13-1.05,1.92,1.92,0,0,0-.74-1.74,1.16,1.16,0,0,0-1.19.06,4.17,4.17,0,0,0-1.63,3.39,1.92,1.92,0,0,0,.75,1.74,1,1,0,0,0,.51.14,1.33,1.33,0,0,0,.67-.2A3.41,3.41,0,0,0,230,178l.82.25.09,0a.32.32,0,0,0,.29-.22A.29.29,0,0,0,231,177.72Zm-2.62,1.56a.54.54,0,0,1-.58.05,1.4,1.4,0,0,1-.44-1.21,3.67,3.67,0,0,1,1.32-2.87.85.85,0,0,1,.37-.11.54.54,0,0,1,.22.05,1.44,1.44,0,0,1,.44,1.22A3.65,3.65,0,0,1,228.39,179.28Z" style="fill:#fafafa"></path><path d="M144.37,207.37a6.45,6.45,0,0,1,2.92-5l133.49-77.08c1.61-.93,2.92-.17,2.92,1.68V133L144.37,213.47Z" style="fill:#263238"></path><path d="M267.31,136.18a3,3,0,0,0-1.37,2.37c0,.87.61,1.22,1.37.79a3,3,0,0,0,1.36-2.37C268.67,136.1,268.06,135.75,267.31,136.18Z" style="fill:#A851B4"></path><path d="M272.09,133.43a3,3,0,0,0-1.37,2.36c0,.88.61,1.23,1.37.79a3,3,0,0,0,1.36-2.36C273.45,133.35,272.84,133,272.09,133.43Z" style="fill:#A851B4"></path><path d="M276.87,130.68A3,3,0,0,0,275.5,133c0,.87.61,1.23,1.37.79a3,3,0,0,0,1.36-2.37C278.23,130.59,277.62,130.24,276.87,130.68Z" style="fill:#A851B4"></path><path d="M147.29,305,280.78,228a6.45,6.45,0,0,0,2.92-5V157.85L144.37,238.28v65.06C144.37,305.2,145.68,306,147.29,305Z" style="fill:#fafafa"></path><path d="M198.83,193l20.36-11.75c.78-.45,1.41-.14,1.41.71a3,3,0,0,1-1.41,2.35l-20.33,11.67c-.79.45-1.43.15-1.43-.67A3,3,0,0,1,198.83,193Z" style="fill:#455a64;opacity:0.4"></path><path d="M195.26,244.81c-.13.07-.23.08-.3,0l-.16-.17L191.5,239v7.49a.85.85,0,0,1-.1.4.56.56,0,0,1-.22.27l-1,.56a.17.17,0,0,1-.22,0,.4.4,0,0,1-.09-.29V235.67a.93.93,0,0,1,.09-.4.6.6,0,0,1,.22-.28l.83-.47c.13-.08.24-.09.31,0l.15.17,3.31,5.65v-7.49a1,1,0,0,1,.09-.4.62.62,0,0,1,.22-.27l1-.55a.17.17,0,0,1,.22,0,.37.37,0,0,1,.1.29v11.74a.82.82,0,0,1-.1.4.54.54,0,0,1-.22.28Z" style="fill:#A851B4"></path><path d="M198,235.26a12,12,0,0,1,.25-2.06,8.77,8.77,0,0,1,.65-1.93,7.27,7.27,0,0,1,1.06-1.67,5.4,5.4,0,0,1,1.51-1.26,2.89,2.89,0,0,1,1.5-.49,1.51,1.51,0,0,1,1.06.44,2.82,2.82,0,0,1,.65,1.19,7,7,0,0,1,.26,1.78c0,.22,0,.47,0,.75v1.73c0,.28,0,.54,0,.77a12,12,0,0,1-.25,2.06,8.85,8.85,0,0,1-.65,1.94,7,7,0,0,1-1.07,1.66,5.81,5.81,0,0,1-1.5,1.25,3,3,0,0,1-1.51.49,1.48,1.48,0,0,1-1.06-.43,2.6,2.6,0,0,1-.65-1.19,7.7,7.7,0,0,1-.25-1.77c0-.23,0-.48,0-.75s0-.57,0-.86,0-.59,0-.87S198,235.5,198,235.26Zm5.35-3a2.39,2.39,0,0,0-.55-1.71c-.34-.29-.78-.27-1.33.05a3.45,3.45,0,0,0-1.33,1.48,5.73,5.73,0,0,0-.55,2.35c0,.47,0,1,0,1.55s0,1.07,0,1.52a2.32,2.32,0,0,0,.55,1.7c.34.28.78.26,1.33-.06a3.45,3.45,0,0,0,1.33-1.48,5.75,5.75,0,0,0,.55-2.33c0-.47,0-1,0-1.55S203.33,232.72,203.32,232.27Z" style="fill:#A851B4"></path><path d="M212.39,222.19a3.43,3.43,0,0,1,1.52-.52,1.47,1.47,0,0,1,1.08.39,2.73,2.73,0,0,1,.66,1.2,8.35,8.35,0,0,1,.27,1.91c0,.88,0,1.78,0,2.69a13.08,13.08,0,0,1-.27,2.23,9.6,9.6,0,0,1-.66,2,6.57,6.57,0,0,1-1.06,1.62,5.81,5.81,0,0,1-1.48,1.21l-3,1.72a.18.18,0,0,1-.23,0,.39.39,0,0,1-.09-.29V224.55a1,1,0,0,1,.09-.4.63.63,0,0,1,.23-.27Zm1.94,3.9a4.13,4.13,0,0,0-.15-1,1.49,1.49,0,0,0-.36-.66.87.87,0,0,0-.61-.23,1.88,1.88,0,0,0-.87.3l-1.59.91v8.18l1.64-1a2.82,2.82,0,0,0,.84-.69,3.84,3.84,0,0,0,.59-.91,4.9,4.9,0,0,0,.36-1.08,6.68,6.68,0,0,0,.15-1.18C214.36,227.87,214.36,227,214.33,226.09Z" style="fill:#A851B4"></path><path d="M221.18,217.12c.12-.07.22-.07.28,0a1,1,0,0,1,.17.37l2.89,9.82a.41.41,0,0,1,0,.12,1,1,0,0,1-.09.4.63.63,0,0,1-.23.27l-.85.49c-.16.09-.27.11-.33,0a.56.56,0,0,1-.13-.22l-.51-1.73-3.73,2.15-.5,2.32a1.94,1.94,0,0,1-.14.37.79.79,0,0,1-.33.35l-.85.49a.17.17,0,0,1-.22,0,.4.4,0,0,1-.09-.29.53.53,0,0,1,0-.13l2.89-13.16a3.26,3.26,0,0,1,.16-.56.7.7,0,0,1,.29-.32Zm.65,7.61-1.3-4.43-1.3,5.93Z" style="fill:#A851B4"></path><path d="M230.27,211.87a.17.17,0,0,1,.22,0,.4.4,0,0,1,.1.29v1.29a1,1,0,0,1-.1.4.65.65,0,0,1-.22.28l-2.13,1.22v10a.93.93,0,0,1-.09.4.61.61,0,0,1-.23.28l-.95.55a.18.18,0,0,1-.23,0,.39.39,0,0,1-.09-.29v-10l-2.13,1.23a.17.17,0,0,1-.22,0,.39.39,0,0,1-.1-.29v-1.29a1,1,0,0,1,.1-.4.62.62,0,0,1,.22-.27Z" style="fill:#A851B4"></path><path d="M234.81,209.25c.13-.07.22-.08.28,0a.85.85,0,0,1,.17.37l2.89,9.82a.37.37,0,0,1,0,.12,1,1,0,0,1-.1.4.62.62,0,0,1-.22.27l-.85.49c-.16.09-.27.1-.33,0a.45.45,0,0,1-.13-.23L236,218.8,232.3,221l-.51,2.31a1.9,1.9,0,0,1-.13.38.72.72,0,0,1-.33.34l-.85.49a.17.17,0,0,1-.22,0,.37.37,0,0,1-.1-.29.61.61,0,0,1,0-.14l2.89-13.15a2.92,2.92,0,0,1,.17-.56.68.68,0,0,1,.28-.32Zm.65,7.6-1.3-4.43-1.3,5.93Z" style="fill:#A851B4"></path></g></g></g><g id="freepik--Character--inject-1"><path d="M458.41,276.92c1.42-28.8-.73-35.76-8.29-41.21l-3.34,16.63s3.05,19.75,2.52,26.3c-.45,5.75-1.18,12.94-2.64,17.56a3.55,3.55,0,0,1-1.57,1.94c-2,1.18-2.8,2.41-4.31,3.92-1.18,1.18-2.16,1.46-2,1.85a1.9,1.9,0,0,0,2.41.91,13.08,13.08,0,0,0,2.8-1.44,17.63,17.63,0,0,1-2.94,4.81c-2.82,3.3-3,5.36,2.54,5.53,3.47.11,6.28-2,9.06-9.54a61.67,61.67,0,0,0,2.63-8.52C456.75,288.13,458.18,281.55,458.41,276.92Z" style="fill:#a35b5a"></path><path d="M443.72,233.38c3.67-.45,8.63.43,11.72,6.25s3.65,15.73,3.79,25.58c0,0-6.5,5.19-14.11,2.39Z" style="fill:#A851B4"></path><path d="M443.72,233.38c3.67-.45,8.63.43,11.72,6.25s3.65,15.73,3.79,25.58c0,0-6.5,5.19-14.11,2.39Z" style="opacity:0.5"></path><path d="M450.79,384.23c.54.22.66,1.28.7,3.37,0,1.59.3,4.36-1.57,4.87s-4.58.17-5.73-1.35a73.53,73.53,0,0,0-4.48-5.88c-1.79-2-3.74-3.9-4.42-6.69-.61-2.51,0-3.58,1.69-4.27,2.37-.95,6,2.4,7.81,3C446.36,377.71,450.24,384,450.79,384.23Z" style="fill:#263238"></path><path d="M450.83,382.29l-.06,2.57a6.31,6.31,0,0,1-6.5,0c-.1-.25-.59-3.69-.59-3.69Z" style="fill:#a35b5a"></path><path d="M429.64,398.57s.68,2.25,1,4.22c.28,1.56.67,4.17.1,5.32s-2.71,1.87-6,1.77c-2.13-.07-5.48,1.31-7.79,2.52s-7.27,1.67-9.75,1.33c-2.92-.41-5.92-2.18-6.36-3.4s.21-2.47,7.18-5.26c.06,0,9.66-2.91,13.08-6.52Z" style="fill:#263238"></path><path d="M429.7,395.79s-.05,1.91-.07,3-1.34,2.69-4.67,2.49c-2.34-.13-4-.8-3.82-2.73l.06-2.77Z" style="fill:#a35b5a"></path><path d="M453.27,348.22a70.32,70.32,0,0,0-2.73-13.46s1.17-11.53,1.86-22.47c.74-11.82.58-26.7.87-29.64,0,0-38-8.58-39,5.07s.41,48.52.73,54.54,1.23,11.35,2.25,21.11,3.93,32.41,3.93,32.41a9,9,0,0,0,8.5,0s3.3-27.28,3.18-34.21a59.54,59.54,0,0,0-2.29-15.19s1-11.26,1.83-21.05,1.65-14.49,1.89-18.75l.83-.39s.46,16.94.77,22.95,1.15,11.8,2.63,23c1.29,9.71,5.32,30.29,5.32,30.29,4.31,2.46,7-.15,7-.15S454.26,356.64,453.27,348.22Z" style="fill:#A851B4"></path><path d="M453.27,348.22a70.32,70.32,0,0,0-2.73-13.46s1.17-11.53,1.86-22.47c.74-11.82.58-26.7.87-29.64,0,0-38-8.58-39,5.07s.41,48.52.73,54.54,1.23,11.35,2.25,21.11,3.93,32.41,3.93,32.41a9,9,0,0,0,8.5,0s3.3-27.28,3.18-34.21a59.54,59.54,0,0,0-2.29-15.19s1-11.26,1.83-21.05,1.65-14.49,1.89-18.75l.83-.39s.46,16.94.77,22.95,1.15,11.8,2.63,23c1.29,9.71,5.32,30.29,5.32,30.29,4.31,2.46,7-.15,7-.15S454.26,356.64,453.27,348.22Z" style="opacity:0.7000000000000001"></path><path d="M434.31,306.59s9.36-4.36,14.09-8.37c0,0-4.44,6-10.15,8.53,0,0-2.48,21-2.46,20.56l-.69-20.74Z" style="opacity:0.4"></path><polygon points="427.82 228.64 429.8 241.12 441.05 240.55 439.74 225.95 427.82 228.64" style="fill:#a35b5a"></polygon><path d="M452.93,239.91c-1-3.4-5.24-7.18-9.55-6.48-1,.16-2,.33-2.93.5-.51,2.1-5.89,3.72-11.4,2.43-1.66.43-3.19.88-4.57,1.34-4,1.31-7.61,4.63-8.23,17.54,0,0-2,30.1-2.15,35.92,9.78,4.13,20,4.24,25.74,3.13,11.86-2.31,13.4-7.18,13.4-7.18s.64-21.66.49-31C453.61,248.13,453.64,242.25,452.93,239.91Z" style="fill:#263238"></path><path d="M419.5,213.32s-2.95,4.48-2.61,4.92,2.5.83,2.5.83Z" style="fill:#8c3f3e"></path><path d="M420.88,216.2a3.52,3.52,0,1,1,3.51-3.52A3.52,3.52,0,0,1,420.88,216.2Zm0-6.25a2.74,2.74,0,1,0,2.73,2.73A2.73,2.73,0,0,0,420.88,210Z" style="fill:#263238"></path><path d="M427.69,200.94c-6,1.26-7.69,3.88-8.25,13.37-.59,9.9.42,13,1.72,14.35.88.9,5.76,1.06,8.23.39,3.08-.85,10.05-3.32,13.31-8.31,3.84-5.86,4.85-13.81.74-17.07C437.65,199.09,430.12,200.43,427.69,200.94Z" style="fill:#a35b5a"></path><path d="M422.27,229.15a17.81,17.81,0,0,0,5.71.16,4.74,4.74,0,0,0,1.92-2.19S428.77,228.7,422.27,229.15Z" style="fill:#8c3f3e"></path><polygon points="417.69 211.95 428.31 213.32 427.88 214.07 417.69 212.75 417.69 211.95" style="fill:#263238"></polygon><path d="M416.64,205.61a9,9,0,0,0,3.39,3.25c1.49.78,3,.82,4.64,2.42a7.42,7.42,0,0,1,1.46,2.09c.07.17,1.33,1.87,1.4,1.61,0,0,.94-3.66,4-3.2s3.53,4.42,1.57,6.83-3.79,1.48-3.79,1.48.1,5.24,2.42,8.2c0,0,2.64.86,7.49-.18,3-.64,7.21-4.37,9-8.31,3.75-8.36,4-15.88-1.32-18.13-.58-3.85-3.61-5.58-7.06-6.37a17.06,17.06,0,0,0-5.57-.07,15.48,15.48,0,0,1-6.2-.58,8.83,8.83,0,0,0-3.32-.7c-1.13.11-2.29,1.06-2.13,2.18a5.32,5.32,0,0,0-6,.12c-2.12,1.58-2.16,3.95-1.38,6.31A14.3,14.3,0,0,0,416.64,205.61Z" style="fill:#263238"></path><path d="M447,203l3.58-2.11A2.08,2.08,0,0,0,447,203Z" style="fill:#263238"></path><path d="M427.47,217.07l.11-4.15a2.08,2.08,0,1,0-.11,4.15Z" style="fill:#263238"></path><path d="M423.88,240.14c-7.53-5.08-22.38-16-24.18-17.14-2.5-1.53-6.33-1.88-8.68-.63-2.18,1.17-.95,4.09,3.27,9.07,4.09,4.82,21.86,23,21.86,23Z" style="fill:#a35b5a"></path><path d="M424.29,238.36c-5.24-3.32-16-10-16-10s-7.42,5.33-5.7,14.28c0,0,10.78,10.33,14,13,2.18,1.76,8.47-1,9.36-7.32C427.12,240.51,424.29,238.36,424.29,238.36Z" style="fill:#A851B4"></path><path d="M424.29,238.36c-5.24-3.32-16-10-16-10s-7.42,5.33-5.7,14.28c0,0,10.78,10.33,14,13,2.18,1.76,8.47-1,9.36-7.32C427.12,240.51,424.29,238.36,424.29,238.36Z" style="opacity:0.5"></path><path d="M390.12,224.05c.57-4.13,13.26-12.87,17.6-15.56a32.39,32.39,0,0,0,5.45-4.17c.66-.64,1.24-1.35,1.89-2s1.21-1.54,2-2.22a13.68,13.68,0,0,1,3.16-2.3,10.76,10.76,0,0,1,7-.5c.54.12,1.08.27,1.64.34,1.17.15,2.5,0,3.41.72a.82.82,0,0,1,.36.6c0,.38-.37.62-.71.79-2.67,1.3-5.82,1.74-8.05,3.71-.17.15-1.21,1.52-.64,1.67s2.51-.65,4.61-.59c2.53.07.86,1.53,0,2a15.3,15.3,0,0,1-4.38,1.69c-2.36.57-4.42.83-6,1.88s-15.64,15.27-15.64,15.27Z" style="fill:#a35b5a"></path></g></svg>